<?xml version="1.0" encoding="UTF-8"?>
<svg xmlns="http://www.w3.org/2000/svg" xmlns:xlink="http://www.w3.org/1999/xlink" width="150px" height="150px" viewBox="0 0 150 150" version="1.1">
<g id="surface1">
<path style=" stroke:none;fill-rule:nonzero;fill:rgb(0%,0%,0%);fill-opacity:1;" d="M 60.835938 1.394531 C 34.109375 7.082031 12.667969 26.03125 3.988281 51.863281 C 2.394531 56.648438 1.695312 61.734375 1.296875 70.8125 C 0.699219 84.972656 2.394531 94.25 7.578125 105.21875 L 10.472656 111.203125 L 5.285156 130.152344 C 2.492188 140.523438 0.199219 149.203125 0.300781 149.300781 C 0.398438 149.402344 9.175781 147.207031 19.847656 144.515625 L 39.097656 139.527344 L 45.179688 142.019531 C 56.847656 146.808594 62.632812 148.003906 74.800781 148.003906 C 88.066406 148.003906 97.441406 145.8125 108.609375 140.125 C 127.160156 130.851562 142.019531 112.5 147.308594 92.753906 C 150 82.679688 149.699219 63.53125 146.707031 53.855469 C 142.320312 39.695312 132.945312 25.234375 122.574219 16.65625 C 116.589844 11.769531 104.621094 5.585938 96.242188 2.992188 C 87.265625 0.199219 70.011719 -0.5 60.835938 1.394531 Z M 95.246094 15.757812 C 114.792969 22.539062 129.953125 38.996094 135.140625 58.941406 C 137.234375 66.921875 137.234375 81.285156 135.238281 88.863281 C 130.253906 107.414062 117.984375 121.976562 100.832031 129.855469 C 83.976562 137.632812 65.324219 137.332031 48.269531 129.253906 L 41.089844 125.863281 L 29.820312 128.65625 C 23.539062 130.253906 18.449219 131.449219 18.25 131.351562 C 18.152344 131.25 19.449219 126.363281 21.042969 120.480469 L 24.035156 109.808594 L 19.945312 101.429688 C 12.464844 85.769531 11.269531 70.613281 16.554688 54.855469 C 24.035156 32.710938 42.085938 17.152344 65.027344 12.964844 C 73.605469 11.46875 86.171875 12.667969 95.246094 15.757812 Z M 95.246094 15.757812 "/>
<path style=" stroke:none;fill-rule:nonzero;fill:rgb(0%,0%,0%);fill-opacity:1;" d="M 42.785156 43.085938 C 38.496094 47.773438 36.402344 55.75 37.898438 61.535156 C 40.292969 71.210938 47.671875 81.78125 59.839844 93.050781 C 69.316406 101.828125 86.070312 109.707031 95.144531 109.707031 C 99.535156 109.707031 108.210938 105.320312 110.304688 102.226562 C 111.304688 100.730469 112.101562 97.539062 112.101562 95.046875 L 112.199219 90.660156 L 103.226562 86.769531 L 94.25 82.878906 L 89.761719 87.867188 C 87.265625 90.558594 84.675781 92.753906 83.875 92.753906 C 83.078125 92.753906 79.6875 91.15625 76.195312 89.261719 C 69.613281 85.570312 58.246094 74.101562 57.246094 70.3125 C 56.847656 68.816406 57.746094 66.621094 59.941406 63.53125 L 63.132812 58.941406 L 60.835938 53.160156 C 55.75 40.492188 55.351562 39.894531 50.265625 39.894531 C 46.476562 39.894531 45.277344 40.390625 42.785156 43.085938 Z M 42.785156 43.085938 "/>
</g>
</svg>
